<?xml version="1.0" encoding="utf-8"?>
<!-- Generator: Adobe Illustrator 16.0.0, SVG Export Plug-In . SVG Version: 6.00 Build 0)  -->
<!DOCTYPE svg PUBLIC "-//W3C//DTD SVG 1.1//EN" "http://www.w3.org/Graphics/SVG/1.1/DTD/svg11.dtd">
<svg version="1.1" xmlns="http://www.w3.org/2000/svg" xmlns:xlink="http://www.w3.org/1999/xlink" x="0px" y="0px"
	 width="907.087px" height="907.086px" viewBox="0 0 907.087 907.086" enable-background="new 0 0 907.087 907.086"
	 xml:space="preserve">
<g id="ersätt_detta_:_x29_">
	<rect x="52.257" y="-110.488" fill="#271537" width="819.977" height="1151.665"/>
	<rect x="-298.888" y="-225.64" fill="#432858" width="1465.509" height="1266.817"/>
	<g>
		<defs>
			<rect id="SVGID_1_" x="-123.171" y="-225.64" width="1040.84" height="1367.634"/>
		</defs>
		<clipPath id="SVGID_2_">
			<use xlink:href="#SVGID_1_"  overflow="visible"/>
		</clipPath>
		<path clip-path="url(#SVGID_2_)" fill="#FFFFFF" d="M676.582,253.339c1.775,0.297,10.646-6.21,15.084-5.915
			c4.436,0.295,18.044-2.07,39.338,14.195c21.296,16.268,40.224,23.365,49.981,60.632c9.764,37.267,1.482,59.447-2.954,68.025
			c-4.436,8.578-5.328,11.83-7.397,18.338c-2.069,6.509-5.918,18.631-7.098,20.999c-1.182,2.365-3.549,1.775-3.549,1.775
			l0.887,17.448c0,0-11.829,11.833-18.927,19.816c-7.099,7.985-29.278,50.869-35.194,60.923
			c-5.915,10.057-13.607,26.623-13.607,26.623h-2.363c0,0-7.098-26.623-12.422-40.818c-5.324-14.191-14.496-21.883-17.157-23.068
			c-2.661-1.184-7.985,1.186-14.491,3.844c-6.506,2.663-20.11,9.469-29.574,5.326c-9.465-4.142-11.828-3.549-11.535-15.971
			c0.294-12.422,1.133-6.803-0.025-9.169c-1.16-2.366-1.16-2.366-2.64-4.734c-1.478-2.362-4.434-1.18-4.732-3.249
			c-0.294-2.072,0-5.624,0-5.624s-4.437-0.294-6.21-2.955c-1.777-2.662-2.367-5.619-2.067-7.689c0.29-2.07,1.179-7.394-2.963-10.35
			c-4.137-2.96-10.646-4.144-12.421-7.099c-1.777-2.96-5.912-4.146-1.478-11.832c4.438-7.688,11.241-18.336,12.717-24.548
			c1.48-6.21,2.369-15.38,0-19.52c-2.368-4.142-5.029-8.284-4.14-16.27c0.887-7.985,5.915-40.815,13.308-49.983
			c7.396-9.166,4.438-28.983,21.295-36.672c16.858-7.692,20.112-7.986,20.112-7.986s-0.887-15.086,6.506-17.157
			c7.396-2.069,8.874,1.48,8.874,1.48s1.772-8.28,9.758-8.28C669.483,243.875,676.582,253.339,676.582,253.339"/>
		<path clip-path="url(#SVGID_2_)" fill="#FFFFFF" d="M252.581,430.507c0,0,17.468-25.92,21.976-27.046
			c4.507-1.129,34.372-6.197,38.314-9.016c3.945-2.815,4.509-11.834,4.509-16.342s9.58-9.581,10.706-12.961
			c1.127-3.379-1.408-6.973-1.408-6.973s5.704-0.212,6.128-2.747c0.422-2.535-0.424-15.213,0-16.269
			c0.422-1.059,7.816-3.172,12.466-8.665s7.186-8.028,2.536-16.693c-4.648-8.662-9.299-17.538-12.679-20.283
			c-3.381-2.749-11.197-8.453-11.197-13.103c0-4.648,0.633-8.028,0.633-8.028s3.168-2.959,2.958-4.649
			c-0.213-1.69-2.747-5.071-2.747-5.071s-4.015-12.678-5.283-15.002c-1.268-2.324-2.747-5.282-2.747-5.282s12.891-1.479,16.693-1.69
			c3.804-0.212,10.565-1.902,10.776-3.171c0.211-1.267-19.228-10.987-19.228-10.987l-20.285-9.297l-3.276-5.917
			c0,0,1.8-4.438,0-6.127c-1.794-1.691-35.816-53.672-35.816-53.672s-48.388,5.07-84.52,22.188
			c-36.133,17.115-44.025,19.91-52.757,28.53c-8.732,8.621-10.424,21.124-14.015,26.619c-3.592,5.493-9.721,7.184-10.144,10.564
			c-0.422,3.38-4.554,15.591-3.709,18.55c0.845,2.958,6.457,18.639,10.048,22.865c3.593,4.227,24.723,30.64,24.723,30.64
			s2.535,3.379,0,8.029c-2.536,4.646-3.169,8.875-1.69,9.931c1.48,1.057,2.536,4.227,1.904,4.86
			c-0.637,0.635,9.085,6.972,19.016,11.411c6.638,2.964,41.625,36.386,47.12,41.625C207.079,392.57,252.581,430.507,252.581,430.507
			"/>
		<path clip-path="url(#SVGID_2_)" fill="#FFFFFF" d="M198.918,851.047 M198.918,851.047c0,0-0.058,0.018-0.152,0.041
			c0.042,0.09,0.07,0.119,0.093,0.119C198.909,851.208,198.918,851.047,198.918,851.047"/>
		<path clip-path="url(#SVGID_2_)" fill="#FFFFFF" d="M597.269,148.383c-11.831-15.71,18.442-63.181,18.442-63.181
			s-1.3,13.789,11.177,23.858c12.476,10.066,31.229,18.917,31.229,18.917S609.103,164.095,597.269,148.383 M638.493,31.437
			c17.011-23.097,41.468-29.88,69.588-15.353c28.123,14.529,15.115,65.435,4.058,75.802c-23.27,21.82-48.936,18.581-67.06,9.103
			C626.954,91.517,621.482,54.539,638.493,31.437 M584.261-28.298c31.435-26.173,72.591,15.345,72.591,15.345
			S634.274-6.786,621.06,7.562c-13.215,14.346-15.163,29.995-15.163,29.995S552.833-2.131,584.261-28.298 M786.517,126.665
			c-13.607,25.14-79.356,0.467-79.356,0.467s26.595-21.827,33.974-33.676c7.374-11.851,7.833-38.072,7.833-38.072
			S805.463,91.668,786.517,126.665 M729.599-33.931c8.184-10.61,27.577-4.886,32.564,0.145c0,0,3.699,13.795-0.727,23.171
			c-4.425,9.375-20.083,9.933-28.831,4.883C723.859-10.78,721.404-23.318,729.599-33.931 M413.976,572.051
			c0,0,11.186,16.692,16.036,12.788c4.628-3.726,25.185-29.955,30.851-36.82c5.668-6.868,15.319-23.917,12.761-32.606
			c-2.558-8.687-33.799-26.363-39.411-32.022c-5.61-5.661-18.759-7.601-18.09-16.99c0.666-9.395,176.936-246.778,176.936-246.778
			s16.164,3.725,24.777-3.939c8.612-7.669-10.1-25.289-10.1-25.289l5.03-4.988c0,0,11.294-3.709,14.439-6.825
			c3.146-3.12,27.396-28.981,36.307-28.8c4.107,0.085,23.945-1.545,49.601,5.998c30.051,8.835,67.68,25.396,91.447-0.854
			c18.186-20.089,6.568-70.118-2.763-84.569c-9.334-14.443-44.292-40.906-37.991-49.641c6.301-8.744,27.82-58.76,1.588-76.409
			c-26.229-17.654-52.085,21.696-62.746,26.03c-10.67,4.339-84.131-66.482-136.521-5.603
			c-36.511,42.431,5.938,75.183,17.075,106.551c11.135,31.362-17.13,49.406-15.286,57.555l1.848,8.152l-6.326,13.749l-0.024,6.265
			c0,0-15.626-8.211-25.065,2.396c-9.441,10.605,8.043,23.21,8.043,23.21l-5.698,13.127c0,0-209.439,276.894-212.473,286.418
			c-3.027,9.528,50.094,36.691,50.094,36.691l8.807-8.73c0,0,20.623,10.738,18.101,14.483c-2.523,3.748-6.345,18.765-6.345,18.765
			s8.09,11.935,9.366,6.931c1.273-5.005,10.092-16.244,10.092-16.244l11.875,5.691l-8.814,9.982c0,0,10.022,0.047,9.386,3.172
			C430.138,556.029,413.976,572.051,413.976,572.051"/>
		<path clip-path="url(#SVGID_2_)" fill="#FFFFFF" d="M198.373,565.079c0,0,32.606,25.101,46.3,36.518
			c13.652,11.38,42.971,42.462,41.859,41.48c-1.107-0.981-32.5-16.889-46.855-28.596c-14.347-11.717-49.646-39.973-49.646-39.973
			L198.373,565.079z M264.653,568.372c2.714,1.404,18.173,14.094,32.824,22.117c14.652,8.021,32.244-12.987,44.236-14.246
			c11.983-1.264,15.857,25.899,15.857,25.899s-21.558,9.588-60.436-0.093c-20.553-5.12-69.55-30.891-69.55-30.891
			C233.671,567.639,261.943,566.959,264.653,568.372 M381.281,592.473c0,0-11.839,3.645-12.186,4.679
			c-0.346,1.041,0.219-9.338,0.219-9.338L381.281,592.473z M363.653,651.997c1.64,18.257-9.646,31.015-9.646,31.015l-40.991-40.223
			c0,0,9.774-7.169,4.099-14.165c-5.67-6.999-18.782,1.174-18.782,1.174l-18.579-20.394c0,0,31.177,3.863,42.313,5.8
			c11.13,1.945,34.688,4.991,34.688,4.991S362.008,633.744,363.653,651.997 M407.276,623.259
			c23.338,25.472,1.012,55.38-2.232,62.396c-3.238,7.019,8.232,23.098,10.896,32.379c2.666,9.275-0.388,19.426,4.372,28.576
			c4.753,9.148,28.148,35.217,28.148,35.217s-5.137-2.011-6.546,0.702c-1.408,2.706,2.7,10.35,2.7,10.35s-6.737,0.905-8.953-1.055
			c-2.217-1.96-31.898-24.272-35.483-31.396c-3.586-7.124-21.263,3.924-24.413,4.129c-3.146,0.212-15.81-10.06-22.399-14.901
			c-6.592-4.84-9.109-3.112-16.656,2.07c-7.555,5.18-24.87,13.578-34.332,16.458c-9.468,2.877-34.705-17.753-34.705-17.753
			s6.676-6.433,7.635-16.452c0.961-10.025-1.321-13.035-1.321-13.035s21.285,4.995,37.513,4.526
			c16.233-0.469,44.953-10.591,44.953-10.591s19.82,23.414,29.608,22.404c9.787-1.012,9.124-6.972,2.88-23.369
			c-6.247-16.402-18.235-15.144-18.295-16.187c-0.063-1.05,11.688-23.27,13.525-37.638c1.835-14.363-3.266-43.239-3.266-43.239
			l10.066-8.017C390.972,608.833,383.938,597.786,407.276,623.259 M253.916,735.805c-4.668,0.813-16.508-12.621-15.291-18.465
			l17.402-0.423C256.027,716.917,258.587,735,253.916,735.805 M248.849,644.332l26.427,11.53c0,0-3.015,11.168,4.07,15.452
			c7.076,4.288,11.074-7.989,13.558-5.793c2.48,2.193,46.201,30.988,45.899,34.677c-0.297,3.688-19.838,10.129-36.191,8.51
			c-16.359-1.628-29.842-2.677-29.842-2.677s-2.772-19.731-5.576-31.138C264.379,663.479,248.849,644.332,248.849,644.332
			 M227.755,693.88c3.6-9.666,7.122-29.286,5.884-32.354c-1.234-3.072-16.696-15.767-23.18-27.426
			c-6.484-11.671-4.855-28.028-2.403-30.802c0,0,20.702,23.261,32.364,42.476c11.664,19.22,17.652,59.117,17.652,59.117
			l-29.317-3.205C228.755,701.686,224.146,703.539,227.755,693.88 M-102.542,361.454c-1.049,3.629,10.791,4.938,8.829,7.156
			c-1.962,2.217-24.756,35.428-28.356,39.496c-3.599,4.068,10.266,7.763,14.897,9.23c4.638,1.463,23.355-24.155,25.968-27.109
			c2.618-2.96,14.843,2.583,13.505,9.305c-1.338,6.724-17.218,15.746-10.025,24.74c7.194,9,25.748-13.462,30.218-14.781
			c4.467-1.322,195.204,167.43,195.204,167.43s2.144,6.512,2.272,8.6c0.126,2.092,9.544-4.076,9.544-4.076s0.626,4.506,2.061,5.118
			c1.434,0.612,5.207-0.668,5.207-0.668s-2.652,8.205-1.825,10.252c0.823,2.047,5.076-2.759,5.899-0.715
			c0.828,2.046,14.35,0.171,16.725,16.116c2.373,15.936-0.987,35.374-0.987,35.374s26.049,8.542,31.078,22.225
			c5.034,13.683-8.5,26.742-10.382,30.353c-1.879,3.61,15,33.697,40.93,63.232c25.93,29.528,70.866,32.373,70.866,32.373
			s-0.993-4.835,2.559-9.592c3.557-4.765,22.508-15.014,30.956-14.131c8.446,0.885,15.69,16.523,22.546,19.948
			c6.849,3.423,15.384-11.431,17.389-12.954c2.003-1.521,12.214-0.396,28.934,15.715c16.721,16.112,38.642,14.417,38.642,14.417
			s18.085,9.988,17.66,14.307c-1.902,19.322,1.376,28.24,8.332,39.001c6.951,10.765,27.938,10.879,27.938,10.879l-1.269,2.178
			c-1.267,2.177-1.22,2.871,4.162,10.934c5.389,8.061-6.146,11.875-6.396,15.427c-0.553,8.076,13.382,7.223,11.958,12.554
			c-1.424,5.329-9.618,3.11-10.918,10.107c-1.581,8.485,12.568,11.121,15.282,15.499c2.714,4.382-3.088,12.428,5.909,22.367
			c9.004,9.938,36.361-0.126,41.45,3.06c5.091,3.183,10.317,14.405,14.258,15.914c3.938,1.504,8.504-9.612,12.36-9.505
			c3.852,0.118,8.274,15.231,13.559,15.957c5.295,0.723,11.459-6.991,15.881-9.012c4.424-2.019,34.554,26.617,45.784,13.485
			c10.897-12.729-12.641-37.536-12.287-43.158c0.358-5.613,13.4-21.096,12.733-26.3c-0.674-5.205-19.86-10.328-21.429-13.023
			c-1.562-2.705,15.156-3.727,14.278-12.417c-0.884-8.688-17.431-4.877-20.977-11.303c-3.537-6.424,10.381-30.354-0.579-38.078
			c-6.653-4.688-22.295,1.359-27.497,2.034c-5.204,0.665-10.85-11.576-16.791-11.563c-3.594,0.014-9.767,11.788-11.444,12.938
			c-1.678,1.153-3.855-0.115-7.354-5.843c-3.497-5.733-6.861-9.369-9.737-10.595c-2.872-1.219-6.953,6.371-13.048,9.538
			c-6.104,3.167-12.881-4.8-12.881-4.8s2.457-10.931-11.659-24.813c-26.789-26.334-40.429,0.167-44.619-9.158
			c-9.312-20.767,3.7-48.13,19.824-58.905c16.128-10.776,71.092-26.727,71.092-26.727s1.124,6.925,22.666,16.098
			c22.991,9.788,21.348-1.391,34.392,2.091c42.653,11.377,116.812-16.584,136.896-19.909c20.076-3.322,120.292-59.74,120.035-78.324
			c-0.04-2.794-2.067-12.614-5.958-24.67c-11.539,10.529-32.531,29.32-43.723,37.023c-15.942,10.975-57.712,39.723-57.712,39.723
			s25.974-21.12,52.417-40.937c20.977-15.721,39.973-32.926,47.368-40.692c-5.463-15.645-13.806-33.792-24.95-45.375
			c-5.515-5.732-12.072-11.56-18.975-17.204c-9.679,8.818-46.089,44.837-71.212,68.411l-24.23,21.174
			c-1.925,0.851,8.101-8.88,22.36-22.262l70.078-69.776c-10.24-8.181-21.024-15.836-30.324-22.075
			c-5.757,9.882-16.568,27.145-31.355,45.109c-37.88,46.014-91.398,101.125-76.611,81.894
			c10.754-13.987,48.558-51.136,69.192-79.548c18.209-25.069,28.607-43.422,32.834-51.381c-9.372-6.106-16.402-10.264-18.211-11.141
			c-0.642,2.078-7.603,16.197-33.068,55.454c-38.024,58.615-95.833,102.362-106.442,106.158
			c-10.611,3.794-28.636,6.296-28.636,6.296s-13.438,3.27-26.777,13.876c-12.12,9.646-8.699,12.067-12.426,14.049
			c-3.725,1.979-44.417,15.935-54.015,20.084c-16.012,6.927-36.175,25.987-45.729,41.257c-8.642,13.813,2.077,45.33,2.077,45.33
			l-12.619-11.818c0,0-2.083-17.005-4.971-24.171c-2.883-7.159-18.242-18.114-25.15-28.181c-6.912-10.07-2.801-22.904-0.635-27.584
			c2.159-4.674-2.361-9.994-4.622-12.651c-2.26-2.651-6.701-6.584-9.285-26.006c-2.588-19.419,15.655-18.442,13.13-31.22
			c-2.534-12.785-16.964-31.48-45.927-59.082c-28.961-27.602-65.728-28.498-65.728-28.498s-6.982,11.611-29.614,7.404
			c-14.427-2.679-29.573-26.165-29.573-26.165s-21.58,7.268-31.737,12.786c-10.148,5.517-25.478-10.682-25.478-10.682l-2.068-2.873
			c-2.073-2.87-7.982-1.408-7.982-1.408s-1.322-4.46-1.805-6.895c-0.485-2.436-5.957,0.027-5.957,0.027s1.173-3.572-1.081-6.228
			c-2.259-2.659-8.232,2.601-8.232,2.601S-71.558,324.948-73.836,324.909c-2.276-0.039-15.112,12.99-15.112,12.99
			S-101.088,356.417-102.542,361.454"/>
	</g>
</g>
<g id="svart">
</g>
<g id="vitt">
</g>
</svg>
