<?xml version="1.0" encoding="utf-8"?>
<!-- Generator: Adobe Illustrator 16.0.0, SVG Export Plug-In . SVG Version: 6.00 Build 0)  -->
<!DOCTYPE svg PUBLIC "-//W3C//DTD SVG 1.1//EN" "http://www.w3.org/Graphics/SVG/1.1/DTD/svg11.dtd">
<svg version="1.1" xmlns="http://www.w3.org/2000/svg" xmlns:xlink="http://www.w3.org/1999/xlink" x="0px" y="0px"
	 width="765.35px" height="765.35px" viewBox="0 0 765.35 765.35" enable-background="new 0 0 765.35 765.35" xml:space="preserve">
<g id="Layer_1">
</g>
<g id="Layer_2">
	<circle cx="384.092" cy="382.675" r="363.626"/>
	<g>
		<path fill="#FFFFFF" stroke="#FFFFFF" stroke-width="2" stroke-miterlimit="10" d="M135.027,419.629
			c-0.005,1.167-0.611,1.746-1.811,1.738l-53.463-0.242c-1.119-0.005-1.675-0.571-1.67-1.699l0.392-86.261
			c0.004-0.451,0.179-0.845,0.528-1.181c0.351-0.337,0.762-0.504,1.229-0.501c0.464,0.001,0.873,0.172,1.219,0.513
			c0.349,0.34,0.521,0.733,0.521,1.184l-0.384,84.458l7.442,0.035l0.384-84.909c0.001-0.452,0.187-0.863,0.554-1.237
			c0.363-0.374,0.767-0.561,1.205-0.558c1.162,0.005,1.744,0.608,1.737,1.811l-0.386,84.909l40.706,0.186
			C134.433,417.878,135.034,418.465,135.027,419.629z"/>
		<path fill="#FFFFFF" stroke="#FFFFFF" stroke-width="2" stroke-miterlimit="10" d="M213.959,419.817
			c-0.002,0.451-0.155,0.885-0.457,1.296c-0.303,0.413-0.72,0.617-1.242,0.614l-55.307-0.252c-0.545-0.003-0.991-0.191-1.339-0.568
			c-0.345-0.379-0.516-0.831-0.515-1.357l0.394-86.599c0.002-0.524,0.196-0.938,0.587-1.237c0.389-0.297,0.817-0.447,1.283-0.445
			l55.307,0.251c0.45,0.002,0.846,0.18,1.181,0.531c0.338,0.35,0.505,0.76,0.501,1.225c-0.001,0.468-0.172,0.875-0.512,1.222
			c-0.342,0.348-0.735,0.52-1.188,0.518l-53.674-0.244l-0.158,34.842l41.835,0.19c0.452,0.003,0.845,0.18,1.181,0.53
			c0.339,0.351,0.504,0.76,0.504,1.225c-0.004,0.467-0.175,0.875-0.514,1.222c-0.342,0.349-0.735,0.521-1.188,0.519l-41.609-0.189
			l-0.146,7.78l42.172,0.19c1.201,0.009,1.803,0.593,1.796,1.757c-0.003,0.438-0.191,0.84-0.569,1.199
			c-0.379,0.364-0.79,0.544-1.243,0.542l-42.284-0.194l-0.151,33.266l53.674,0.245c0.45,0.001,0.844,0.211,1.181,0.625
			S213.963,419.369,213.959,419.817z"/>
		<path fill="#FFFFFF" stroke="#FFFFFF" stroke-width="2" stroke-miterlimit="10" d="M296.097,409.366
			c-0.003,0.526-0.193,0.979-0.57,1.352c-4.077,3.815-8.753,6.653-14.021,8.507c-5.272,1.855-10.613,2.771-16.025,2.746
			c-6.239-0.029-12.1-1.24-17.574-3.632c-5.477-2.394-10.237-5.628-14.278-9.709c-4.039-4.074-7.232-8.861-9.573-14.362
			c-2.344-5.498-3.502-11.366-3.472-17.606c0.028-6.238,1.239-12.097,3.63-17.574c2.395-5.477,5.629-10.236,9.705-14.276
			c4.08-4.041,8.868-7.234,14.367-9.576c5.496-2.343,11.363-3.501,17.606-3.472c5.412,0.024,10.726,0.99,15.942,2.892
			c5.217,1.904,9.844,4.78,13.886,8.633c0.448,0.454,0.674,0.868,0.671,1.244c-0.002,0.526-0.192,0.996-0.568,1.406
			c-0.381,0.413-0.832,0.617-1.356,0.615c-0.377-0.002-0.753-0.192-1.126-0.57c-4.045-3.4-8.279-6.031-12.707-7.895
			c-4.427-1.861-9.346-2.805-14.758-2.829c-5.713-0.026-11.096,1.039-16.141,3.196c-5.045,2.159-9.477,5.126-13.288,8.904
			c-3.816,3.779-6.824,8.182-9.027,13.208c-2.201,5.026-3.316,10.397-3.343,16.109c-0.026,5.714,1.04,11.094,3.196,16.14
			c2.159,5.047,5.128,9.479,8.905,13.29c3.777,3.813,8.18,6.821,13.207,9.023c5.027,2.206,10.398,3.318,16.112,3.344
			c4.962,0.022,9.758-0.837,14.388-2.583c4.631-1.744,8.871-4.188,12.719-7.329l0.221-23.904l-42.96-0.194
			c-0.526-0.004-0.958-0.191-1.294-0.572c-0.334-0.374-0.503-0.826-0.502-1.353c0.003-0.452,0.176-0.864,0.514-1.239
			c0.341-0.373,0.773-0.56,1.299-0.559l44.654,0.204c1.203,0.006,1.8,0.647,1.795,1.925L296.097,409.366z M295.816,371.703
			c-0.002,0.451-0.155,0.865-0.457,1.239c-0.304,0.375-0.717,0.56-1.243,0.558l-43.975-0.201c-1.205-0.005-1.802-0.608-1.796-1.812
			c0.002-0.524,0.191-0.937,0.568-1.236c0.377-0.297,0.792-0.448,1.243-0.446l43.976,0.2c0.451,0.002,0.845,0.174,1.183,0.514
			C295.65,370.855,295.818,371.252,295.816,371.703z"/>
		<path fill="#FFFFFF" stroke="#FFFFFF" stroke-width="2" stroke-miterlimit="10" d="M321.529,420.533
			c-0.002,0.527-0.193,0.939-0.568,1.237c-0.378,0.3-0.793,0.449-1.244,0.446c-0.449-0.001-0.845-0.172-1.18-0.514
			c-0.34-0.34-0.505-0.734-0.503-1.185l0.394-86.826c0.003-0.45,0.175-0.844,0.516-1.181c0.339-0.337,0.733-0.505,1.186-0.502
			c0.45,0.001,0.863,0.155,1.236,0.456c0.373,0.303,0.562,0.718,0.561,1.243L321.529,420.533z"/>
		<path fill="#FFFFFF" stroke="#FFFFFF" stroke-width="2" stroke-miterlimit="10" d="M508.373,421.301
			c-0.002,0.452-0.193,0.846-0.57,1.182c-0.379,0.338-0.79,0.504-1.242,0.503c-0.604-0.004-1.053-0.229-1.349-0.684l-44.929-63.689
			l-0.286,62.356c0,0.451-0.187,0.863-0.55,1.238c-0.368,0.375-0.767,0.561-1.205,0.559c-1.166-0.005-1.744-0.609-1.739-1.814
			l0.31-67.993c0-0.375,0.184-0.749,0.549-1.125c0.365-0.374,0.729-0.561,1.091-0.559c0.507,0.002,0.977,0.269,1.408,0.795
			c0.522,0.755,1.607,2.282,3.25,4.583c1.642,2.3,3.659,5.109,6.051,8.428c2.391,3.319,5.002,6.997,7.844,11.031
			c2.836,4.035,5.712,8.089,8.627,12.16c2.913,4.072,5.732,8.052,8.46,11.937c2.724,3.885,5.153,7.351,7.281,10.405
			s3.826,5.543,5.097,7.467C507.739,420.001,508.373,421.075,508.373,421.301z M522.129,421.25
			c-0.007,1.205-0.612,1.803-1.812,1.797c-0.604-0.001-1.054-0.23-1.349-0.682l-61.625-86.544c-0.15-0.15-0.226-0.488-0.224-1.016
			c0.008-1.201,0.553-1.801,1.635-1.796c0.438,0.001,0.871,0.268,1.303,0.795l58.603,82.132l0.368-81.413
			c0.004-0.451,0.174-0.846,0.514-1.182c0.338-0.337,0.734-0.504,1.187-0.502c0.45,0.002,0.846,0.172,1.18,0.512
			c0.337,0.34,0.506,0.735,0.502,1.186L522.129,421.25z"/>
		<path fill="#FFFFFF" stroke="#FFFFFF" stroke-width="2" stroke-miterlimit="10" d="M608.727,421.534
			c0,0.45-0.154,0.882-0.458,1.294c-0.302,0.412-0.717,0.617-1.241,0.615l-55.305-0.253c-0.546-0.002-0.993-0.189-1.339-0.57
			c-0.349-0.376-0.519-0.827-0.517-1.355l0.395-86.598c0.001-0.526,0.199-0.939,0.585-1.239c0.391-0.297,0.819-0.447,1.285-0.444
			l55.307,0.251c0.452,0.002,0.845,0.179,1.181,0.531c0.337,0.35,0.503,0.759,0.501,1.224c-0.001,0.468-0.171,0.876-0.514,1.223
			c-0.34,0.348-0.734,0.521-1.185,0.518l-53.674-0.244l-0.159,34.843l41.834,0.189c0.451,0.001,0.845,0.18,1.182,0.531
			c0.338,0.349,0.505,0.76,0.503,1.225c-0.004,0.467-0.175,0.875-0.514,1.222c-0.339,0.349-0.736,0.52-1.187,0.519l-41.608-0.189
			l-0.148,7.78l42.173,0.191c1.201,0.006,1.801,0.591,1.796,1.757c-0.002,0.437-0.192,0.838-0.571,1.199
			c-0.378,0.361-0.791,0.541-1.24,0.54l-42.286-0.191l-0.149,33.263l53.671,0.244c0.453,0.002,0.848,0.21,1.184,0.626
			C608.563,420.648,608.729,421.082,608.727,421.534z"/>
		<path fill="#FFFFFF" stroke="#FFFFFF" stroke-width="2" stroke-miterlimit="10" d="M677.623,422.071
			c-0.002,0.451-0.193,0.845-0.568,1.181c-0.38,0.34-0.793,0.505-1.246,0.504c-0.6-0.002-1.05-0.232-1.35-0.684l-44.926-63.69
			l-0.284,62.357c-0.002,0.449-0.187,0.862-0.553,1.237c-0.365,0.376-0.766,0.561-1.203,0.56c-1.164-0.005-1.745-0.609-1.739-1.814
			l0.31-67.993c0-0.376,0.182-0.75,0.547-1.125c0.365-0.374,0.729-0.561,1.092-0.56c0.509,0.003,0.976,0.27,1.409,0.796
			c0.521,0.755,1.605,2.282,3.249,4.583c1.644,2.301,3.657,5.109,6.05,8.428c2.391,3.319,5.006,6.997,7.844,11.03
			c2.837,4.035,5.716,8.088,8.627,12.16c2.913,4.073,5.732,8.053,8.461,11.937c2.726,3.884,5.152,7.352,7.28,10.405
			c2.129,3.054,3.828,5.543,5.098,7.467C676.988,420.771,677.623,421.845,677.623,422.071z M691.379,422.021
			c-0.006,1.203-0.611,1.802-1.811,1.796c-0.604-0.002-1.053-0.229-1.352-0.684l-61.625-86.542c-0.15-0.15-0.223-0.488-0.221-1.016
			c0.004-1.201,0.551-1.801,1.638-1.797c0.432,0.003,0.868,0.27,1.299,0.796l58.599,82.132l0.372-81.414
			c0.001-0.45,0.173-0.845,0.513-1.181c0.339-0.337,0.736-0.503,1.188-0.502c0.45,0.001,0.844,0.173,1.181,0.513
			c0.336,0.34,0.505,0.735,0.501,1.186L691.379,422.021z"/>
		<path fill="#FFFFFF" stroke="#FFFFFF" stroke-width="2" stroke-miterlimit="10" d="M134.635,418.501
			c-0.007,1.167-0.613,1.746-1.813,1.738l-53.461-0.241c-1.12-0.004-1.676-0.572-1.67-1.7l0.392-86.26
			c0.002-0.451,0.179-0.846,0.529-1.181c0.351-0.338,0.76-0.505,1.226-0.503c0.464,0.002,0.873,0.174,1.22,0.513
			c0.349,0.34,0.523,0.734,0.521,1.184l-0.385,84.458l7.441,0.036l0.386-84.91c0.004-0.452,0.187-0.863,0.554-1.236
			c0.363-0.374,0.767-0.561,1.205-0.559c1.164,0.005,1.742,0.609,1.738,1.811l-0.387,84.91l40.707,0.185
			C134.038,416.751,134.639,417.338,134.635,418.501z"/>
		<path fill="#FFFFFF" stroke="#FFFFFF" stroke-width="2" stroke-miterlimit="10" d="M213.565,418.69
			c-0.003,0.452-0.157,0.885-0.458,1.295c-0.303,0.414-0.718,0.618-1.242,0.616l-55.307-0.253c-0.543-0.003-0.99-0.19-1.338-0.57
			c-0.346-0.378-0.518-0.828-0.518-1.355l0.396-86.599c0.002-0.525,0.197-0.939,0.585-1.238c0.391-0.298,0.818-0.447,1.285-0.445
			l55.306,0.251c0.451,0.003,0.845,0.181,1.182,0.531c0.337,0.35,0.504,0.76,0.502,1.224c-0.002,0.468-0.175,0.876-0.513,1.224
			c-0.342,0.347-0.734,0.519-1.187,0.517l-53.674-0.244l-0.16,34.843l41.835,0.189c0.45,0.002,0.847,0.18,1.182,0.531
			c0.337,0.35,0.501,0.76,0.501,1.224c-0.002,0.468-0.172,0.876-0.512,1.223c-0.341,0.348-0.736,0.521-1.188,0.519l-41.608-0.189
			l-0.146,7.78l42.171,0.191c1.202,0.006,1.802,0.591,1.797,1.756c-0.004,0.437-0.193,0.838-0.57,1.199
			c-0.379,0.363-0.791,0.543-1.243,0.541l-42.284-0.193l-0.152,33.264l53.674,0.246c0.452,0.002,0.846,0.211,1.183,0.625
			C213.4,417.809,213.566,418.239,213.565,418.69z"/>
		<path fill="#FFFFFF" stroke="#FFFFFF" stroke-width="2" stroke-miterlimit="10" d="M295.702,408.239
			c-0.003,0.527-0.193,0.978-0.57,1.35c-4.078,3.816-8.753,6.653-14.021,8.507c-5.271,1.856-10.613,2.771-16.026,2.747
			c-6.239-0.029-12.098-1.238-17.573-3.632c-5.478-2.394-10.235-5.628-14.277-9.707c-4.039-4.078-7.232-8.864-9.574-14.363
			c-2.343-5.498-3.503-11.366-3.473-17.607c0.03-6.238,1.24-12.096,3.631-17.575c2.396-5.475,5.628-10.234,9.707-14.276
			c4.079-4.041,8.866-7.232,14.366-9.576c5.495-2.343,11.365-3.5,17.605-3.472c5.413,0.024,10.726,0.99,15.942,2.891
			c5.214,1.904,9.846,4.781,13.886,8.633c0.451,0.454,0.675,0.868,0.671,1.243c-0.001,0.526-0.193,0.997-0.569,1.408
			c-0.378,0.411-0.831,0.616-1.355,0.614c-0.379-0.002-0.751-0.19-1.126-0.569c-4.045-3.402-8.281-6.032-12.705-7.896
			c-4.429-1.862-9.346-2.805-14.758-2.83c-5.715-0.026-11.095,1.041-16.141,3.197c-5.047,2.159-9.479,5.127-13.293,8.904
			c-3.811,3.779-6.82,8.182-9.021,13.208c-2.204,5.027-3.318,10.398-3.345,16.11c-0.025,5.713,1.04,11.093,3.198,16.141
			c2.155,5.046,5.123,9.477,8.901,13.288c3.779,3.813,8.183,6.822,13.209,9.024c5.027,2.204,10.397,3.318,16.11,3.343
			c4.963,0.024,9.759-0.837,14.39-2.583c4.631-1.744,8.87-4.188,12.72-7.328l0.221-23.903l-42.961-0.195
			c-0.525-0.004-0.959-0.192-1.297-0.571c-0.332-0.377-0.501-0.828-0.499-1.354c0.001-0.454,0.172-0.865,0.514-1.24
			c0.339-0.372,0.772-0.56,1.298-0.557l44.655,0.202c1.2,0.007,1.801,0.648,1.795,1.926L295.702,408.239z M295.423,370.576
			c-0.001,0.45-0.155,0.865-0.458,1.238c-0.303,0.375-0.716,0.56-1.242,0.559l-43.975-0.202c-1.206-0.005-1.803-0.607-1.798-1.812
			c0.001-0.525,0.191-0.938,0.571-1.237c0.375-0.298,0.789-0.448,1.241-0.446l43.977,0.201c0.448,0.002,0.845,0.172,1.181,0.512
			C295.259,369.729,295.425,370.125,295.423,370.576z"/>
		<path fill="#FFFFFF" stroke="#FFFFFF" stroke-width="2" stroke-miterlimit="10" d="M321.135,419.405
			c-0.002,0.527-0.191,0.94-0.567,1.237c-0.38,0.3-0.794,0.448-1.241,0.445c-0.454-0.001-0.849-0.173-1.184-0.512
			c-0.34-0.34-0.504-0.734-0.504-1.186l0.396-86.826c0.003-0.45,0.173-0.844,0.514-1.182c0.339-0.337,0.734-0.504,1.187-0.502
			c0.451,0.002,0.861,0.155,1.237,0.457c0.375,0.303,0.562,0.718,0.561,1.243L321.135,419.405z"/>
		<path fill="#FFFFFF" stroke="#FFFFFF" stroke-width="2" stroke-miterlimit="10" d="M507.979,420.174
			c-0.002,0.451-0.194,0.845-0.57,1.182c-0.379,0.336-0.792,0.504-1.241,0.502c-0.603-0.004-1.054-0.23-1.352-0.684l-44.926-63.689
			l-0.285,62.357c-0.002,0.45-0.188,0.862-0.55,1.238c-0.369,0.374-0.771,0.559-1.207,0.557c-1.167-0.005-1.743-0.607-1.737-1.812
			l0.308-67.993c0.002-0.376,0.182-0.75,0.547-1.125c0.365-0.374,0.729-0.561,1.093-0.559c0.508,0.003,0.975,0.269,1.411,0.795
			c0.52,0.756,1.604,2.282,3.248,4.582c1.64,2.302,3.659,5.11,6.05,8.428c2.39,3.32,5.003,6.997,7.845,11.031
			c2.836,4.036,5.712,8.089,8.625,12.162c2.914,4.072,5.732,8.05,8.46,11.934c2.725,3.886,5.155,7.352,7.283,10.407
			c2.126,3.055,3.825,5.542,5.097,7.467C507.346,418.876,507.979,419.947,507.979,420.174z M521.736,420.124
			c-0.008,1.205-0.612,1.801-1.813,1.797c-0.604-0.004-1.054-0.231-1.35-0.685l-61.625-86.542c-0.152-0.15-0.225-0.488-0.225-1.016
			c0.01-1.202,0.552-1.801,1.638-1.797c0.436,0.002,0.868,0.269,1.304,0.796l58.598,82.132l0.371-81.413
			c0.002-0.451,0.175-0.844,0.514-1.182c0.34-0.337,0.734-0.504,1.187-0.502c0.449,0.002,0.844,0.174,1.181,0.514
			c0.337,0.339,0.505,0.735,0.503,1.186L521.736,420.124z"/>
		<path fill="#FFFFFF" stroke="#FFFFFF" stroke-width="2" stroke-miterlimit="10" d="M608.334,420.405
			c-0.002,0.451-0.156,0.884-0.458,1.296c-0.302,0.41-0.717,0.616-1.242,0.612l-55.308-0.251c-0.543-0.002-0.99-0.189-1.337-0.569
			c-0.347-0.378-0.521-0.829-0.517-1.355l0.395-86.6c0.001-0.526,0.197-0.938,0.587-1.237c0.389-0.298,0.817-0.448,1.282-0.446
			l55.307,0.251c0.453,0.002,0.846,0.181,1.184,0.531c0.335,0.35,0.501,0.76,0.5,1.225c-0.001,0.466-0.172,0.875-0.514,1.222
			c-0.341,0.347-0.734,0.52-1.186,0.518l-53.674-0.244l-0.157,34.842l41.834,0.191c0.449,0.001,0.844,0.18,1.18,0.529
			c0.337,0.352,0.504,0.762,0.502,1.227c-0.001,0.466-0.172,0.875-0.513,1.221c-0.34,0.348-0.736,0.521-1.188,0.518l-41.607-0.188
			l-0.147,7.778l42.171,0.193c1.201,0.004,1.8,0.591,1.798,1.755c-0.004,0.437-0.194,0.839-0.57,1.199
			c-0.379,0.363-0.79,0.544-1.243,0.541l-42.287-0.192l-0.148,33.265l53.674,0.243c0.45,0.002,0.846,0.212,1.182,0.625
			C608.169,419.521,608.336,419.954,608.334,420.405z"/>
		<path fill="#FFFFFF" stroke="#FFFFFF" stroke-width="2" stroke-miterlimit="10" d="M677.228,420.945
			c-0.002,0.449-0.192,0.842-0.567,1.18c-0.38,0.338-0.794,0.504-1.244,0.502c-0.601-0.002-1.054-0.232-1.351-0.683l-44.926-63.689
			l-0.284,62.355c-0.002,0.451-0.188,0.865-0.552,1.237c-0.369,0.378-0.767,0.561-1.205,0.559c-1.166-0.003-1.745-0.607-1.74-1.812
			l0.311-67.993c0.002-0.375,0.184-0.749,0.55-1.124c0.362-0.374,0.726-0.56,1.089-0.559c0.508,0.002,0.978,0.269,1.407,0.794
			c0.524,0.756,1.608,2.284,3.251,4.583c1.644,2.301,3.66,5.11,6.054,8.428c2.388,3.32,5,6.998,7.84,11.03
			c2.841,4.036,5.715,8.091,8.628,12.163c2.912,4.071,5.732,8.052,8.46,11.936c2.724,3.884,5.155,7.351,7.281,10.405
			c2.128,3.054,3.825,5.543,5.097,7.468C676.595,419.644,677.229,420.717,677.228,420.945z M690.983,420.895
			c-0.006,1.202-0.61,1.801-1.812,1.798c-0.601-0.006-1.052-0.232-1.351-0.687l-61.622-86.542c-0.15-0.149-0.225-0.489-0.223-1.015
			c0.004-1.202,0.551-1.802,1.638-1.798c0.432,0.003,0.867,0.27,1.3,0.796l58.6,82.131l0.371-81.412
			c0.002-0.451,0.173-0.846,0.51-1.181c0.343-0.338,0.737-0.505,1.19-0.503c0.449,0.002,0.844,0.173,1.18,0.513
			c0.336,0.34,0.506,0.735,0.504,1.186L690.983,420.895z"/>
		<circle fill="#FFFFFF" cx="390.087" cy="376.826" r="45.121"/>
		<path fill="#FFFFFF" d="M486.944,308.749c-24.917,0-45.12-20.2-45.12-45.119c0-24.92,20.203-45.12,45.12-45.12V308.749z"/>
		<path fill="#FFFFFF" d="M290.336,447.584c24.918,0,45.121,20.2,45.121,45.122c0,24.917-20.203,45.119-45.121,45.119V447.584z"/>
		<path fill="#FFFFFF" d="M528.729,175.066c0-23.221,17.548-42.336,40.101-44.835c-1.649-0.182-3.321-0.284-5.02-0.284
			c-24.918,0-45.12,20.2-45.12,45.119c0,24.92,20.202,45.12,45.12,45.12c1.698,0,3.37-0.102,5.02-0.284
			C546.277,217.404,528.729,198.289,528.729,175.066z"/>
		<path fill="#FFFFFF" d="M244.108,573.068c0-23.219-17.544-42.336-40.101-44.835c1.65-0.181,3.323-0.282,5.021-0.282
			c24.917,0,45.121,20.201,45.121,45.117c0,24.922-20.204,45.122-45.121,45.122c-1.698,0-3.371-0.102-5.021-0.284
			C226.564,615.407,244.108,596.291,244.108,573.068z"/>
	</g>
</g>
<g id="Layer_3">
</g>
</svg>
